<svg width="40" height="40" viewBox="0 0 40 40" fill="none" xmlns="http://www.w3.org/2000/svg">
<g clip-path="url(#clip0)">
<path d="M1.26664 20.3333L1.13331 20.2667C0.833309 20.1 0.599976 19.85 0.433309 19.5333C0.199976 19.1 0.0999756 18.7 0.0999756 18.2833L0.133309 18.0667C0.133309 17.7333 0.216642 17.4333 0.366642 17.15L0.499976 16.9C0.566642 16.7667 0.666642 16.65 0.749976 16.5333C0.849976 16.4167 0.866642 16.2667 0.833309 16.1333L0.749976 15.8667C0.649976 15.5333 0.583309 15.2 0.583309 14.8667L0.533309 14.6667C0.533309 14.3 0.633309 13.9333 0.866642 13.6667L1.03331 13.45C1.14998 13.2833 1.33331 13.1833 1.53331 13.1167C1.69998 13.0667 1.81664 12.9 1.83331 12.7L1.86664 12.1333C1.86664 11.6833 2.08331 11.2667 2.41664 10.9667L2.81664 10.6667C2.89998 10.5833 2.98331 10.5 3.04998 10.3667C3.13331 10.2667 3.14998 10.1333 3.13331 10.0333C3.09998 9.86668 3.13331 9.81668 3.21664 9.80001C3.48331 9.90001 3.64998 9.86668 3.76664 9.73334L3.98331 9.45001L4.58331 8.78334C4.74998 8.61668 4.81664 8.31668 4.71664 8.08334L4.51664 7.65001C4.48331 7.55001 4.51664 7.43334 4.59998 7.40001C4.81664 7.40001 4.96664 7.48334 5.03331 7.61668L5.09998 7.73334C5.19998 7.93334 5.43331 8.03334 5.59998 7.95001C5.96664 7.81668 6.26664 7.78334 6.54998 7.78334H7.08331C7.44998 7.78334 7.74998 7.53334 7.81664 7.15001C7.88331 6.68334 8.04998 6.31668 8.28331 6.06668C8.53331 5.78334 8.81664 5.56668 9.14998 5.40001C9.58331 5.16668 9.84998 4.83334 9.93331 4.40001C10.05 3.86668 10.3333 3.48334 10.7166 3.23334L11.9833 2.51668L12.35 2.30001C12.5666 2.16668 12.7666 2.00001 12.9333 1.80001L13.2666 1.40001C13.4333 1.23334 13.6 1.11668 13.8 1.06668C13.9666 1.01668 14.2 0.983344 14.4 1.00001L15.0666 1.05001C15.4 1.05001 15.6666 1.13334 15.9333 1.25001L16.1 1.33334C16.2666 1.40001 16.4333 1.36668 16.5166 1.25001L16.6666 1.16668L17.3833 0.416677C17.55 0.25001 17.75 0.183344 17.9666 0.216677C18.1833 0.25001 18.4 0.333343 18.6 0.433343C18.9 0.60001 19.15 0.666677 19.4333 0.666677H19.6C19.9666 0.666677 20.3333 0.716677 20.7 0.80001L20.95 0.866677C21.2 0.933344 21.45 0.833344 21.6166 0.633344C21.6666 0.55001 21.7833 0.533344 21.85 0.60001C21.9 0.633344 21.9166 0.666677 21.9333 0.716677C21.9666 1.05001 22.1666 1.30001 22.4333 1.38334L22.7 1.46668C22.9833 1.55001 23.2333 1.73334 23.4 1.96668C23.5666 2.21668 23.7666 2.46668 24 2.63334L24.1666 2.80001C24.3333 2.96668 24.5666 3.03334 24.8 3.01668H25.7833C26.1833 3.01668 26.5666 3.08334 26.95 3.25001C27.3166 3.41668 27.7 3.45001 28.05 3.31668C28.4166 3.20001 28.8 3.15001 29.1833 3.20001L29.9 3.31668C30.2333 3.35001 30.5666 3.51668 30.7666 3.76668L30.85 3.85001C31.0166 4.01668 31.1833 4.23334 31.35 4.46668C31.45 4.68334 31.6833 4.80001 31.9166 4.80001H32.95C33.2 4.80001 33.45 4.85001 33.65 4.96668C33.8666 5.13334 34.05 5.30001 34.2166 5.46668L34.3833 5.68334C34.5833 5.91668 34.6833 6.23334 34.6666 6.56668C34.6666 6.83334 34.8666 7.06668 35.1333 7.06668L35.4666 7.10001C35.7 7.10001 35.9 7.26668 36.0166 7.48334L36.1833 7.81668L36.6166 8.78334C36.6833 8.95001 36.7 9.11668 36.6833 9.25001C36.6833 9.41668 36.7333 9.55001 36.85 9.61668L37.0166 9.73334C37.2333 9.90001 37.35 10.15 37.3166 10.4333L37.2 11.2167L37.1666 11.55C37.1333 11.7167 37.2166 11.9333 37.3666 12.05C37.6166 12.2167 37.7333 12.4333 37.75 12.6833V13.0167C37.75 13.1833 37.7166 13.3833 37.5833 13.5167C37.4833 13.65 37.4166 13.8167 37.4166 14.0167L37.4666 14.4C37.4666 14.6667 37.6333 14.9 37.8 15.0667C38.0333 15.2333 38.1666 15.5 38.2 15.7667C38.2666 16.1833 38.2833 16.5167 38.2833 16.85V17.2333C38.2833 17.3667 38.2833 17.5 38.3333 17.6333C38.3666 17.75 38.45 17.8667 38.55 17.9333L38.8833 18.1833C39.2166 18.4 39.45 18.6833 39.5833 19.0667C39.75 19.4333 39.8 19.8167 39.8 20.2V20.3333C39.8 20.6333 39.7666 20.95 39.6666 21.2333C39.5833 21.5333 39.6 21.8167 39.7166 22.0667C39.85 22.3 39.9333 22.5667 39.9666 22.85C40.0333 23.1833 40 23.5167 39.8833 23.7833L39.85 23.9C39.7666 24.1 39.6333 24.2833 39.4666 24.4333C39.3 24.6 39.1333 24.7 39.0333 24.8167C38.9333 24.9167 38.8666 25.0833 38.9166 25.2333L38.9666 25.4667C39.05 25.8 39.05 26.1333 38.9666 26.4333V26.5667C38.9 26.8167 38.8 27.0333 38.7 27.2333C38.5833 27.45 38.4166 27.6167 38.2 27.7333L37.95 27.9C37.8333 27.9667 37.75 28.1167 37.75 28.2667C37.75 28.4333 37.6833 28.6 37.5833 28.7L37.3333 29.0333C37.1666 29.25 36.95 29.4333 36.7166 29.5333C36.4833 29.7 36.2833 29.8667 36.1333 30.0333C35.9666 30.2333 35.8333 30.4667 35.7666 30.7C35.7 31 35.4666 31.1667 35.2166 31.1667H34.3166C34.0833 31.1667 33.8666 31.3333 33.7666 31.5333C33.65 31.8 33.5333 31.9833 33.3833 32.15C33.2166 32.3167 33.1166 32.5167 33.05 32.75C33.0166 32.95 32.85 33.0833 32.6833 33.0167C32.4666 32.9167 32.25 33.0167 32.15 33.1833C31.95 33.5167 31.75 33.7667 31.5333 33.9833L31.4166 34.0833C31.2 34.25 30.9166 34.3833 30.6666 34.3833C30.3666 34.3833 30.2166 34.5167 30.1666 34.7167C30.1166 34.8833 30.0833 35.1 30.0666 35.2833C30.0333 35.4833 29.9666 35.6667 29.9 35.8333L29.8166 35.9333C29.65 36.1833 29.5166 36.4333 29.35 36.65L29.2833 36.75C29.0666 37.0333 28.7833 37.25 28.45 37.3333C28.05 37.4667 27.7 37.5 27.35 37.5H27.1166C26.95 37.5 26.7833 37.6 26.6666 37.7667L26.5666 37.9333L26.4666 38.1333L26.25 38.5C26.0833 38.8 25.8333 39 25.5 39.1C25.1666 39.1833 24.7833 39.2167 24.4333 39.2L24.1666 39.1667C23.9333 39.1667 23.7166 39.1 23.5 39C23.3333 38.9333 23.1 39 23 39.1667C22.8333 39.4 22.6333 39.5333 22.4166 39.6L21.9166 39.7667C21.5833 39.85 21.2166 39.85 20.8666 39.7667L20.6 39.6833C20.4333 39.6833 20.2666 39.6 20.1333 39.5167C19.9666 39.4333 19.8 39.4 19.6333 39.4167L19.4166 39.45C19.0833 39.4833 18.7833 39.45 18.4833 39.3667L18.0333 39.2667C17.8333 39.2 17.65 39.0667 17.5333 38.8833C17.45 38.7167 17.2666 38.5833 17.0333 38.55H16.5C16.1666 38.5 15.8666 38.3833 15.6666 38.1333L15 37.5L14.7666 37.3L14.4 37.0333L14.1833 36.8667C13.9333 36.7 13.6333 36.5667 13.3166 36.5333L12.3166 36.3667C12.2166 36.3667 12.15 36.3333 12.05 36.3167L11.6666 36.2333C11.5 36.2 11.3333 36.0667 11.2166 35.9C11.1166 35.7333 10.9333 35.6667 10.7666 35.7333C10.4333 35.8667 10.1666 35.9 9.89998 35.95H9.66664C9.23331 35.9833 8.83331 35.9167 8.43331 35.7333C8.03331 35.5667 7.76664 35.3167 7.51664 35C7.31664 34.7167 7.01664 34.5 6.64998 34.4333L6.18331 34.3333C5.84998 34.2667 5.51664 34.1333 5.21664 33.9333C4.88331 33.7 4.71664 33.4833 4.58331 33.2167C4.44998 32.9667 4.36664 32.6833 4.34998 32.3833V32.25C4.31664 31.9167 4.08331 31.6167 3.76664 31.5333C3.38331 31.4167 3.09998 31.25 2.84998 31.0333C2.61664 30.8167 2.48331 30.5 2.48331 30.1667L2.51664 29.4333C2.51664 29.15 2.43331 28.9 2.23331 28.7167C2.03331 28.5167 1.89998 28.2667 1.89998 28L1.84998 27.4C1.81664 26.9667 1.73331 26.5333 1.63331 26.1C1.53331 25.7167 1.68331 25.3333 1.99998 25.15L2.11664 25.0667C2.28331 24.95 2.34998 24.7333 2.24998 24.5333L2.11664 24.3667C1.94998 24.2 1.78331 24.0833 1.61664 24.0333C1.48331 24 1.44998 23.8667 1.44998 23.7833L1.61664 23.5833C1.71664 23.4667 1.69998 23.2833 1.61664 23.1833C1.48331 23.05 1.41664 22.8833 1.39998 22.7167L1.36664 21.55C1.36664 21.3167 1.39998 21.0833 1.46664 20.85C1.53331 20.65 1.46664 20.4167 1.26664 20.3167V20.3333ZM17.7666 18.1333C17.8833 18.0167 17.8666 17.8 17.7666 17.7167C17.6 17.5833 17.4833 17.4333 17.3833 17.2667L17.2166 17C17.1 16.7833 16.95 16.6 16.7833 16.4333L16.75 16.4C16.5833 16.2667 16.4666 16.1 16.3666 15.9C16.2833 15.7333 16.2833 15.5667 16.3666 15.4L16.4666 15.2333C16.5666 15.0667 16.6333 14.8333 16.6333 14.6333V14.5667C16.6333 14.4 16.5666 14.2333 16.4666 14.0667C16.4 13.9333 16.3333 13.7667 16.3 13.6V13.5C16.25 13.3 16.3 13.0833 16.4333 12.9167C16.5666 12.7 16.6666 12.5 16.7166 12.25V12.2167C16.7833 12.05 16.75 11.8333 16.65 11.6667C16.55 11.5 16.5166 11.3333 16.5833 11.1333L16.7 10.8C16.8 10.5 16.95 10.2333 17.15 10L17.3833 9.75001L17.55 9.55001L17.65 9.45001C17.75 9.35001 17.7666 9.18334 17.6833 9.05001C17.6 8.88334 17.55 8.71668 17.5833 8.55001L17.6166 8.31668C17.6666 7.98334 17.7833 7.65001 18 7.38334L18.0666 7.31668C18.3166 6.98334 18.6333 6.76668 19 6.65001L19.45 6.48334C19.65 6.41668 19.7833 6.20001 19.7833 5.98334C19.7833 5.71668 19.8666 5.48334 20.0166 5.26668L20.1 5.18334C20.2666 4.90001 20.4666 4.61668 20.6 4.31668L20.7166 4.10001C20.75 4.05001 20.7666 3.98334 20.7666 3.93334C20.7666 3.65001 20.6 3.40001 20.3333 3.38334L19.6 3.33334C19.1833 3.30001 18.7666 3.33334 18.3666 3.33334L16.95 3.50001C16.7333 3.50001 16.5666 3.66668 16.55 3.90001C16.55 4.13334 16.3833 4.33334 16.1833 4.40001L15.5833 4.56668L15.4166 4.61668L14.9166 4.78334C14.55 4.90001 14.25 5.16668 14.0833 5.53334L13.95 5.75001C13.7833 6.11668 13.5 6.41668 13.15 6.63334C12.8166 6.85001 12.65 7.20001 12.6166 7.60001V7.76668C12.5833 8.10001 12.4833 8.43334 12.2833 8.66668L12.2 8.80001C12.0666 8.96668 12.0333 9.18334 12.1166 9.36668C12.2 9.56668 12.25 9.78334 12.2333 10V10.8833C12.2333 11.1167 12.0666 11.3167 11.9 11.3833C11.6666 11.4667 11.5166 11.65 11.45 11.8833L11.3666 12.2167C11.3 12.55 11.4166 12.8833 11.7 13.0833C11.9666 13.2833 12.1333 13.5833 12.2 13.95V14.25C12.25 14.5833 12.4333 14.9167 12.7333 15.0833C13.0333 15.2833 13.2666 15.5833 13.4 15.9167L13.4833 16.1833C13.6166 16.55 13.9166 16.7667 14.25 16.8H14.35C14.65 16.8 14.9166 16.9667 15.0833 17.2333C15.25 17.5 15.5166 17.6833 15.8166 17.7333L16.2833 17.8667C16.5666 17.95 16.8333 18.1 17.05 18.3167L17.0833 18.35C17.25 18.4833 17.5166 18.4667 17.6666 18.2833L17.7833 18.15L17.7666 18.1333ZM19.6666 16.6C19.8333 16.7 20 16.65 20.0666 16.5L20.1166 16.4167C20.2333 16.1833 20.3833 15.95 20.55 15.75L20.8833 15.25C20.9333 15.25 20.95 15.2167 20.9666 15.1833L21.3666 14.65C21.5333 14.4833 21.7333 14.3667 21.9666 14.3667C22.1833 14.3667 22.3666 14.25 22.4666 14.0333C22.5333 13.8 22.6333 13.5833 22.8333 13.4L22.9166 13.3C23.0833 13.1333 23.25 13.05 23.4166 12.9667C23.6333 12.9333 23.8333 12.9 24.0333 12.9H24.5333C24.7333 12.9 24.9 12.8167 25 12.65C25.1 12.4833 25.25 12.3667 25.4166 12.2833L25.5833 12.2167C25.85 12.1 26.15 12.0167 26.45 11.9833L26.7833 11.95C26.9833 11.95 27.2 11.95 27.4 12.0667C27.5666 12.1833 27.7833 12.1667 27.95 12.0333L28.0666 11.9667C28.3166 11.8 28.6 11.6667 28.9 11.6333H28.9333C29.2666 11.5667 29.5666 11.5667 29.9 11.5833H30.0666C30.4 11.6333 30.6833 11.75 30.9 12L30.95 12.0667C31.1166 12.2333 31.3833 12.3667 31.6166 12.3667H31.9C31.9833 12.3667 32.0666 12.3333 32.1166 12.25C32.1666 12.2 32.25 12.15 32.3333 12.15H32.5C32.7333 12.15 32.95 12.2167 33.1666 12.2833L33.45 12.4C33.7166 12.4833 34 12.5667 34.2833 12.6H34.4833C34.6166 12.6 34.7 12.5167 34.7 12.4C34.7 12.2333 34.6666 12.0667 34.5833 11.9333L34.4666 11.6667C34.3333 11.45 34.2333 11.2167 34.1333 11L34.1 10.9167C34.0166 10.75 34.0166 10.5833 34.1 10.4167V10.3333C34.1333 10.2 34.0666 10.05 33.9333 10H33.8C33.5333 9.91668 33.3 9.76668 33.1333 9.55001L32.9666 9.38334C32.8 9.21668 32.7 8.96668 32.6333 8.71668C32.55 8.50001 32.3666 8.33334 32.1333 8.33334H31.4333C31.1833 8.30001 30.9666 8.16668 30.8166 7.96668L30.75 7.88334C30.6333 7.71668 30.5333 7.51668 30.4666 7.31668C30.3833 7.15001 30.2 7.05001 30.0333 7.10001L29.8333 7.16668C29.5 7.28334 29.1666 7.33334 28.8333 7.30001L28.5666 7.26668C28.2833 7.26668 28.0166 7.15001 27.8 6.98334L27.6333 6.86668C27.5 6.76668 27.3666 6.70001 27.2166 6.63334C27.05 6.56668 26.9166 6.60001 26.8166 6.71668L26.7333 6.81668C26.5666 6.98334 26.3333 7.11668 26.1 7.15001L25.2 7.20001C25.0333 7.20001 24.8666 7.28334 24.75 7.40001C24.6166 7.51668 24.4666 7.60001 24.3 7.63334H24.2666C24.1 7.63334 23.9333 7.75001 23.7666 7.86668V7.90001C23.6 8.06668 23.3833 8.15001 23.1666 8.15001L23.1 8.18334C22.9 8.18334 22.7 8.18334 22.5 8.23334H22.3C22.0166 8.28334 21.8 8.51668 21.7333 8.81668L21.6666 9.20001C21.6166 9.46668 21.5 9.70001 21.3333 9.91668C21.1666 10.1167 20.9666 10.25 20.7166 10.25H20.4666H20.4333C20.2666 10.2833 20.1 10.4667 20.1333 10.6667C20.1666 10.95 20.1333 11.2 20.0833 11.45L20.0166 11.7333C19.95 11.9833 19.7833 12.1833 19.5666 12.2667L19.4666 12.3167H19.4333C19.3333 12.3833 19.2666 12.5333 19.35 12.65C19.45 12.8167 19.4833 12.9833 19.4666 13.15L19.4166 13.6833C19.4166 13.8833 19.3333 14.0667 19.25 14.2333C19.15 14.4 19.15 14.5667 19.2166 14.7333L19.3833 15.1C19.4666 15.2667 19.4833 15.4333 19.4333 15.6333C19.3833 15.8 19.35 15.9667 19.3666 16.1333C19.3666 16.3 19.4666 16.4667 19.6 16.5333L19.6333 16.5667L19.6666 16.6ZM32.8333 28.65C33 28.8167 33.25 28.8833 33.45 28.75L33.7833 28.5333C33.95 28.4167 34.0833 28.25 34.15 28.0333V28L34.3166 27.5L34.4166 27.3333L34.4833 27.1667L34.55 27.05C34.6166 26.9167 34.7166 26.8167 34.8833 26.7667L34.95 26.7333C35.0833 26.7 35.1666 26.5667 35.1666 26.4333C35.1666 26.2667 35.25 26.1333 35.3333 26.0167L35.4666 25.9L35.8 25.4667V25.4333C35.9 25.3 35.9666 25.15 36 24.9833C36.0333 24.8167 36 24.65 35.9333 24.4833L35.9 24.4167C35.8333 24.25 35.8 24.1333 35.7833 23.9833L35.7333 23.5167L35.6833 23.0167C35.6833 22.85 35.75 22.6833 35.85 22.5167C35.9666 22.3833 36.05 22.2167 36.1166 22.05V21.9833L36.15 21.95C36.1833 21.7833 36.1 21.6167 35.95 21.6167C35.7833 21.5333 35.6166 21.4 35.5666 21.2L35.5166 21.1C35.4333 20.8 35.3833 20.5 35.3833 20.2L35.4166 19.3667V19.3167C35.4166 19.0333 35.1833 18.8167 34.9166 18.8167H34.8833C34.55 18.8167 34.2833 18.7167 34.05 18.4833L33.9166 18.3167L33.5833 17.9333L33.15 17.4333C32.9833 17.2 32.8166 17 32.6 16.8C32.4333 16.6333 32.1833 16.4667 31.9333 16.4333L31.6 16.3833C31.4333 16.35 31.2166 16.2667 31.0333 16.15C30.9 16.05 30.7 16.0833 30.5666 16.2167L30.35 16.45L30.25 16.5167C30.1333 16.55 30.0166 16.4833 29.9666 16.35C29.9 16.15 29.9 15.9167 30 15.7167V15.6167C30 15.5 29.9 15.4167 29.8 15.45H29.5333C29.2333 15.45 28.9333 15.4167 28.65 15.2833L28.4833 15.2167C28.3166 15.1333 28.1166 15.0833 27.9333 15.0833C27.7666 15.0833 27.6 15.1167 27.4333 15.2167L27.3666 15.2667C27.1666 15.4 26.9333 15.4667 26.7 15.4833H26.15C25.9 15.4833 25.65 15.5667 25.4833 15.7C25.2666 15.8333 25.0333 15.9167 24.7833 15.9667L24.3333 16.0333C24.1333 16.0833 23.9166 16.1667 23.7333 16.3167C23.5666 16.4833 23.3333 16.5833 23.1166 16.65L23.0333 16.6833C22.7666 16.7667 22.5333 16.9333 22.3666 17.1833L22.1666 17.3833C22.05 17.55 22.05 17.75 22.1666 17.9167C22.2666 18.0833 22.4666 18.1333 22.6666 18.0833L22.9166 17.9833C23.05 17.9333 23.2 17.9833 23.3166 18.05C23.4166 18.1333 23.5666 18.1833 23.7166 18.1667L24.1333 18.1167C24.3666 18.1167 24.6 18.1167 24.8333 18.1833C25.0833 18.2667 25.3 18.35 25.5 18.5167C25.7 18.6833 25.9166 18.75 26.1666 18.7833C26.4166 18.8167 26.6666 18.8667 26.9 18.95L27.0666 18.9833C27.2333 19.0333 27.3666 19.15 27.4666 19.3167C27.55 19.45 27.6333 19.65 27.6333 19.8167V19.8667C27.6333 20.0667 27.8 20.2 27.9666 20.2H28.0666C28.3333 20.2 28.6166 20.2333 28.9 20.3167L29.0166 20.3667C29.1833 20.4333 29.35 20.5333 29.4666 20.7C29.6 20.8667 29.6833 21.0333 29.7333 21.2L29.7833 21.4333C29.8333 21.6833 29.85 21.9333 29.85 22.2V22.2833C29.85 22.45 29.9666 22.6167 30.15 22.6833C30.3166 22.7167 30.5166 22.7833 30.7 22.8833L30.7833 22.9167C31 23.05 31.2166 23.2167 31.3833 23.4167L31.4666 23.5333C31.6833 23.7833 31.8 24.1 31.8 24.4167V24.5333C31.8 24.7833 31.75 25.0333 31.6666 25.2667C31.6 25.4667 31.6666 25.7 31.8833 25.7667L32 25.85C32.25 25.95 32.4666 26.1333 32.6333 26.35C32.8 26.6 32.8666 26.8833 32.8666 27.1833V27.6833C32.8333 27.85 32.7833 27.9833 32.7 28.1C32.6166 28.2167 32.6166 28.3833 32.7 28.5L32.8 28.6667L32.8333 28.65ZM22.1666 20.1167H22.1333C22.0666 20.1167 22.0333 20.2 22.05 20.2833L22.1166 20.6167C22.1833 20.8833 22.2166 21.15 22.25 21.4167C22.2833 21.6833 22.4166 21.9167 22.6166 22.0833H22.6833C22.9333 22.2833 23.0833 22.5833 23.1 22.8833V23.7167C23.0666 23.8833 23.1 24.05 23.2 24.1833L23.2833 24.2667C23.45 24.4667 23.5166 24.7 23.5333 24.9333L23.5833 25.85C23.5833 26.0667 23.45 26.25 23.25 26.2833L23.0833 26.3167C22.9666 26.3167 22.9166 26.45 22.9166 26.5667C22.9166 26.7 22.9666 26.85 23.0166 26.9833V27.0167C23.0666 27.1833 23.0833 27.35 23.0666 27.5167L23 27.9667C22.9333 28.3 22.8333 28.6 22.6666 28.9L22.55 29.1C22.4666 29.2667 22.35 29.3667 22.2166 29.4333C22.05 29.5 21.9333 29.6333 21.8833 29.8L21.75 30.4C21.6666 30.7333 21.5166 31.0667 21.3166 31.4H21.2833C21.0833 31.6667 20.8333 31.9 20.5333 32.0667L20.3333 32.2L19.8333 32.45C19.6666 32.5167 19.5666 32.6667 19.5333 32.85L19.45 33.4C19.4 33.7333 19.2833 34.0167 19.05 34.2333L18.8333 34.4833L18.5833 34.7333L18.3333 35C18.1333 35.2333 17.8333 35.3333 17.5 35.2833L16.9 35.1667L16.35 35.1H16.2C16.1333 35.1667 16.1166 35.2667 16.1666 35.3667C16.2833 35.5667 16.4666 35.7 16.6666 35.7L17.0333 35.7667C17.2 35.7667 17.4 35.85 17.5666 35.9333C17.7333 36.05 17.9 36.1333 18.1 36.1833H18.1333C18.35 36.2667 18.5833 36.2833 18.8 36.2667L19.05 36.2333C19.3333 36.2 19.6 36.2333 19.8333 36.3333L20.0333 36.4C20.1166 36.4333 20.25 36.4 20.3333 36.3167C20.4333 36.2167 20.5333 36.15 20.6666 36.1L20.8 36.0667C21.0166 36 21.2333 35.9667 21.4666 35.9667H21.6C21.8 35.9667 21.9833 36 22.15 36.1L22.2166 36.1333C22.3333 36.1833 22.4666 36.1333 22.55 36.0333C22.6 35.9167 22.7166 35.8 22.8333 35.7L23.25 35.4167L23.5166 35.25L23.65 35.1667C23.8166 35.05 24.05 35 24.25 35L24.85 34.95C25.0833 34.9167 25.2833 34.75 25.35 34.5167C25.4166 34.2667 25.5166 34.0167 25.6833 33.8C25.85 33.5833 26.0166 33.4 26.1833 33.2333C26.4 33.0667 26.6166 32.9833 26.85 32.9667H26.9833C27.25 32.9167 27.45 32.6667 27.4333 32.4V32.3667V31.2833C27.4666 31.1167 27.5333 30.9 27.6333 30.7333L27.9666 30.2333L28.1 30.0667C28.2 29.9833 28.2666 29.8667 28.3833 29.7333L28.55 29.5167C28.65 29.35 28.65 29.1333 28.5166 28.9833C28.35 28.8167 28.2666 28.5833 28.2333 28.35V28.2833C28.2 28.0167 28.2 27.7333 28.2833 27.45V27.3667C28.3666 27.15 28.4833 26.9333 28.6166 26.7333C28.75 26.5667 28.7333 26.3333 28.5666 26.2L28.2833 25.95C28.05 25.75 27.9166 25.45 27.8833 25.15L27.85 24.8167C27.85 24.7167 27.85 24.6 27.8166 24.4833L27.7833 24.2333C27.75 23.95 27.5833 23.7333 27.35 23.5667L27.2333 23.5333C27.0666 23.4333 26.9 23.2833 26.7666 23.0833C26.6333 22.9167 26.5666 22.6833 26.5166 22.45L26.4666 22.1667C26.4666 22.0667 26.4 22 26.3 21.95L26.0333 21.8667L25.5 21.7C25.3333 21.6667 25.1666 21.5333 25.05 21.4167H25.0166C24.9166 21.2833 24.75 21.2833 24.65 21.3833L24.4833 21.55C24.45 21.6 24.4166 21.6167 24.3666 21.6C24.2666 21.6 24.2 21.5167 24.2333 21.4333C24.2666 21.1667 24.1666 20.9 23.95 20.7333L23.7333 20.5667L23.2333 20.2333C23.1 20.1833 22.9 20.2333 22.8333 20.4L22.7666 20.5C22.7666 20.5333 22.7166 20.55 22.7 20.5667C22.6333 20.5667 22.5333 20.5667 22.5333 20.4833L22.4833 20.4C22.4333 20.3 22.3166 20.2333 22.2166 20.2L22.1666 20.1167ZM20.1666 21.7833L20.0833 21.7C20 21.6333 19.9166 21.65 19.8333 21.7333C19.7166 21.9333 19.6166 22.15 19.5666 22.3667V22.4C19.5166 22.6167 19.3166 22.7667 19.1166 22.7333H18.95H18.9166C18.6833 22.7333 18.5 22.9333 18.5 23.1667C18.5 23.4667 18.4 23.7667 18.2166 24L18.1166 24.1C17.95 24.3167 17.7 24.4667 17.45 24.55L17.3166 24.5833C17.15 24.6333 17.0166 24.75 16.9833 24.95C16.9833 25.1167 16.8833 25.2833 16.75 25.4167L16.5833 25.55C16.3833 25.7667 16.0833 25.8833 15.7833 25.9167L14.95 26C14.6833 26 14.45 26.1667 14.2833 26.4167C14.1166 26.6667 13.8666 26.8333 13.6166 26.8667L13.25 26.9C12.9833 26.9333 12.7 26.9333 12.4166 26.8667L12.25 26.8333L11.8 26.7167C11.6333 26.6667 11.5 26.7167 11.4 26.8333L11.2333 27.05C11.0166 27.3 10.7 27.4167 10.4 27.3833L9.31664 27.25C9.14998 27.25 9.01664 27.1667 8.86664 27.0833C8.69998 26.9833 8.58331 26.8667 8.46664 26.75L8.04998 26.25C7.99998 26.2167 7.91664 26.2 7.83331 26.2167L7.59998 26.3167L6.66664 26.55C6.49998 26.6 6.28331 26.55 6.11664 26.45C5.94998 26.3167 5.74998 26.2833 5.54998 26.2833H5.33331C5.13331 26.3333 4.99998 26.55 5.06664 26.75L5.13331 27.0833C5.18331 27.25 5.16664 27.45 5.08331 27.6167C4.99998 27.7833 5.01664 27.95 5.13331 28.1167L5.23331 28.25C5.36664 28.45 5.56664 28.6167 5.73331 28.7833C5.89998 28.95 6.06664 29.1167 6.19998 29.3333L6.44998 29.7833C6.58331 30.0167 6.78331 30.15 7.04998 30.15C7.29998 30.15 7.54998 30.2333 7.74998 30.4L8.24998 30.8667C8.38331 30.9833 8.58331 31 8.71664 30.9L8.79998 30.8667C8.89998 30.8667 8.96664 30.9333 8.96664 31.0333V31.1167C8.96664 31.3333 9.13331 31.5333 9.34998 31.6167L10.1 31.7833C10.3666 31.8667 10.6333 31.95 10.8833 32.1167H11.0166C11.15 32.1167 11.2666 32 11.25 31.85V31.2667C11.25 31.1 11.3166 30.9333 11.45 30.8667L11.5333 30.8333C11.6166 30.8667 11.7 30.9333 11.6666 31V31.2833C11.6666 31.5 11.7333 31.7 11.8833 31.85C12.05 32.0167 12.2666 32.05 12.45 31.9833C12.65 31.9 12.85 31.8833 13.0666 31.9L13.6833 31.9333C13.9833 31.9667 14.2666 31.9333 14.5166 31.8167C14.8166 31.7167 15.0666 31.5833 15.3 31.4L15.4 31.3333L15.9 30.8833C16.0666 30.7167 16.2833 30.6333 16.4833 30.6333H17.15C17.4833 30.6 17.7833 30.3 17.8166 29.9667L17.8833 29.6333C17.8833 29.4167 17.9833 29.2167 18.1333 29.05C18.3 28.8833 18.4666 28.7833 18.6333 28.7167L18.8333 28.6333C19.1166 28.5167 19.3333 28.2667 19.4333 27.9667L19.5333 27.5667C19.6166 27.2333 19.7833 26.9 20.0333 26.6833L20.0666 26.65C20.2666 26.4833 20.3 26.15 20.1666 25.9167L20.1166 25.8C20 25.6333 19.9833 25.3833 20.0666 25.1667C20.15 24.9333 20.2333 24.7333 20.3666 24.5333L20.5333 24.3C20.6 24.1667 20.6 23.9667 20.5 23.85C20.4 23.7167 20.3333 23.55 20.3333 23.3833L20.3 23.15V22.5833C20.3333 22.4167 20.3 22.2 20.25 22.0333L20.1833 21.8333L20.1666 21.7833ZM17.7833 20.5167V20.4667C17.7833 20.3 17.6833 20.2 17.55 20.2H17.1166C16.95 20.2333 16.7833 20.2333 16.65 20.2H15.9C15.5166 20.2 15.15 20.1333 14.7833 20.0333L14.3833 19.9333L14.05 19.8333L13.3 19.5833C12.9 19.4667 12.6 19.2 12.4166 18.8333L12.3333 18.6667C12.2166 18.4167 11.9666 18.2833 11.7166 18.3333C11.4333 18.3333 11.15 18.3333 10.8833 18.2L10.6833 18.1167C10.3 17.95 10.0166 17.6167 10.0166 17.1667L9.94998 16.7167C9.89998 16.4833 9.74998 16.2667 9.54998 16.1833C9.31664 16.0833 9.09998 15.95 8.88331 15.8L8.79998 15.75C8.54998 15.55 8.33331 15.2833 8.21664 14.9667L8.18331 14.8667C8.09998 14.6 8.08331 14.3167 8.14998 14.0333L8.18331 13.9333C8.24998 13.7167 8.26664 13.5 8.26664 13.2667C8.26664 13.0667 8.18331 12.8667 8.03331 12.7167L7.79998 12.5C7.53331 12.2833 7.36664 11.9667 7.34998 11.6167C7.31664 11.25 7.31664 10.9 7.38331 10.55V10.5V10.45C7.38331 10.25 7.21664 10.1167 7.04998 10.1167H6.99998C6.78331 10.1167 6.59998 10.25 6.49998 10.45C6.41664 10.6833 6.28331 10.8667 6.13331 11.05L6.06664 11.1333L5.73331 11.4667L5.56664 11.6333C5.39998 11.8 5.29998 12.05 5.26664 12.3C5.23331 12.55 5.16664 12.8 5.06664 13.0333L5.03331 13.1167C4.94998 13.3167 4.81664 13.5 4.64998 13.6167C4.48331 13.75 4.36664 13.95 4.36664 14.15L4.33331 14.9167C4.33331 15.25 4.28331 15.5833 4.16664 15.9167L4.13331 16.05C4.04998 16.2667 4.13331 16.5 4.33331 16.6L5.03331 16.9L5.09998 16.9333C5.14998 16.9333 5.16664 16.9667 5.18331 17.0167C5.23331 17.0833 5.18331 17.1833 5.13331 17.1833L4.96664 17.2667C4.86664 17.3 4.79998 17.4 4.76664 17.5167L4.73331 17.6833V17.7167L4.56664 18.65C4.53331 18.7833 4.53331 18.9333 4.53331 19.0833C4.53331 19.2167 4.61664 19.3333 4.73331 19.3833L5.09998 19.55C5.26664 19.65 5.46664 19.7667 5.59998 19.8833L5.76664 20.0167C5.81664 20.0833 5.89998 20.15 5.96664 20.1833L6.03331 20.25C6.14998 20.35 6.23331 20.4833 6.26664 20.6333L6.43331 21.3833C6.43331 21.5833 6.59998 21.75 6.76664 21.8L7.03331 21.8833C7.03331 21.8833 7.08331 21.8833 7.11664 21.9167L7.44998 22.0167C7.71664 22.1 7.94998 22.25 8.14998 22.45C8.34998 22.6167 8.54998 22.8333 8.71664 23.0667L8.78331 23.1333C8.91664 23.3 9.11664 23.3833 9.31664 23.3333C9.51664 23.2833 9.73331 23.2667 9.94998 23.2667H10.2C10.3666 23.2667 10.5833 23.3167 10.7666 23.4333C10.9333 23.5333 11.15 23.6 11.35 23.6833H11.4C11.6 23.7667 11.8166 23.7333 11.9833 23.6167C12.15 23.4833 12.3666 23.4167 12.5833 23.4167L13.3666 23.4667C13.5333 23.4667 13.7 23.4333 13.7833 23.3H13.8166L14.1 23.0333L14.1833 22.95C14.3166 22.7833 14.5166 22.7167 14.7166 22.7H15.4666C15.6666 22.7 15.85 22.5333 15.9333 22.3667C16.0166 22.2 16.1833 22.0667 16.3833 22.0333L16.7166 21.9667C16.85 21.9667 16.9666 21.85 17.0166 21.7C17.0666 21.5333 17.15 21.4 17.2666 21.3L17.5333 21.0333C17.7 20.8667 17.7833 20.7 17.8166 20.5L17.7833 20.5167Z" fill="black"/>
</g>
<defs>
<clipPath id="clip0">
<rect width="40" height="40" fill="white"/>
</clipPath>
</defs>
</svg>
