<svg width="40" height="40" viewBox="0 0 40 40" fill="none" xmlns="http://www.w3.org/2000/svg">
<g clip-path="url(#clip0)">
<path d="M39.99 40V39.9983H40V25.3283C40 18.1517 38.455 12.6233 30.065 12.6233C26.0317 12.6233 23.325 14.8367 22.22 16.935H22.1033V13.2933H14.1483V39.9983H22.4317V26.775C22.4317 23.2933 23.0917 19.9267 27.4033 19.9267C31.6517 19.9267 31.715 23.9 31.715 26.9983V40H39.99Z" fill="black"/>
<path d="M0.659973 13.295H8.95331V40H0.659973V13.295Z" fill="black"/>
<path d="M4.80333 0C2.15167 0 0 2.15167 0 4.80333C0 7.455 2.15167 9.65167 4.80333 9.65167C7.455 9.65167 9.60667 7.455 9.60667 4.80333C9.605 2.15167 7.45333 0 4.80333 0V0Z" fill="black"/>
</g>
<defs>
<clipPath id="clip0">
<rect width="40" height="40" fill="white"/>
</clipPath>
</defs>
</svg>
